<?xml version="1.0" standalone="no"?>
<!DOCTYPE svg PUBLIC "-//W3C//DTD SVG 20010904//EN"
 "http://www.w3.org/TR/2001/REC-SVG-20010904/DTD/svg10.dtd">
<svg version="1.0" xmlns="http://www.w3.org/2000/svg"
 width="512.000000pt" height="512.000000pt" viewBox="0 0 512.000000 512.000000"
 preserveAspectRatio="xMidYMid meet">
<metadata>
Created by potrace 1.14, written by Peter Selinger 2001-2017
</metadata>
<g transform="translate(0.000000,512.000000) scale(0.100000,-0.100000)"
fill="#000000" stroke="none">
<path d="M3640 4690 c-80 -21 -161 -44 -180 -49 -66 -20 -606 -163 -880 -233
-300 -76 -359 -83 -452 -53 -37 13 -71 35 -113 75 -93 88 -213 172 -275 191
-68 21 -110 17 -275 -27 -71 -19 -318 -83 -549 -143 -461 -120 -467 -123 -513
-212 l-23 -44 1 -1405 c1 -1274 4 -1476 23 -1590 31 -180 80 -334 128 -402 11
-16 16 -33 12 -39 -4 -8 -3 -9 4 -5 13 8 35 -28 24 -39 -4 -5 -2 -5 4 -2 6 4
22 -5 35 -19 13 -14 37 -33 52 -41 22 -11 26 -17 18 -27 -8 -10 -7 -17 6 -27
16 -13 17 -12 4 3 -11 15 -11 19 3 24 9 3 22 1 30 -5 7 -6 17 -7 21 -3 5 4 6
0 3 -9 -4 -9 -1 -16 8 -16 7 0 11 4 8 9 -3 4 4 8 15 8 12 0 21 -6 21 -12 0 -9
3 -8 10 2 5 8 12 12 15 8 4 -4 27 2 52 13 25 11 48 17 51 14 3 -3 -1 -5 -8 -5
-9 0 -7 -5 6 -16 18 -14 18 -15 -5 -4 -17 9 -26 9 -35 0 -8 -8 -7 -10 5 -5 23
9 33 -32 11 -45 -10 -5 -12 -10 -5 -10 6 0 15 5 19 11 4 8 9 7 15 -2 4 -7 11
-10 16 -5 4 4 0 12 -10 17 -31 18 -18 30 14 13 25 -13 29 -18 18 -26 -12 -8
-11 -9 1 -5 8 2 14 12 12 22 -5 24 17 9 28 -19 8 -22 40 -32 40 -13 0 5 -6 7
-14 4 -8 -3 -16 2 -19 13 -7 26 4 33 20 12 12 -16 13 -15 6 3 -6 17 -5 18 10
7 8 -8 13 -21 10 -30 -4 -14 -3 -14 5 -3 6 8 8 20 5 28 -3 7 -2 13 2 13 10 0
35 -27 30 -32 -3 -3 2 -5 10 -5 8 0 12 4 10 8 -3 4 2 10 10 13 12 4 14 10 5
25 -8 17 -7 20 10 18 12 -1 18 -7 16 -14 -3 -7 -1 -15 3 -17 5 -3 8 5 7 17 -2
28 14 68 25 61 5 -3 4 -14 -2 -25 -6 -12 -8 -24 -4 -27 3 -3 8 3 11 15 3 11
17 26 30 34 18 9 23 18 18 32 -3 11 -2 17 3 14 12 -8 39 10 30 20 -5 4 -12 1
-17 -7 -9 -13 -10 -13 -10 0 -1 12 -3 11 -11 -3 -6 -9 -14 -15 -19 -12 -5 3
-19 1 -30 -5 -16 -9 -20 -8 -20 4 0 10 6 13 17 9 10 -4 14 -2 10 4 -3 5 0 10
8 10 8 0 15 -5 15 -11 0 -6 5 -4 10 5 5 9 27 20 47 24 21 4 44 11 51 17 6 6
12 7 12 4 0 -4 8 -2 18 3 11 6 24 6 35 0 13 -8 19 -6 23 5 5 14 8 14 27 1 32
-22 46 -18 17 6 l-25 20 25 -12 c14 -7 29 -12 34 -11 5 2 3 -5 -5 -14 -15 -19
-15 -19 40 4 9 3 12 1 7 -6 -4 -7 -14 -12 -22 -12 -14 0 -16 -5 -18 -44 -1
-11 -8 -21 -16 -24 -12 -4 -13 -2 -3 9 15 18 1 44 -18 35 -8 -4 -6 -1 4 7 16
13 16 15 2 21 -9 3 -14 2 -11 -3 3 -5 -1 -14 -10 -21 -12 -10 -17 -11 -27 -1
-9 10 -8 11 4 6 10 -4 20 -2 24 4 3 7 0 8 -9 5 -10 -4 -16 -1 -16 7 0 10 -3
10 -12 1 -17 -17 -28 -15 -28 6 0 14 -2 15 -9 2 -6 -8 -8 -17 -5 -21 5 -9 -17
-6 -33 4 -7 5 -13 4 -13 -2 0 -5 -9 -8 -20 -6 -17 3 -19 1 -10 -15 12 -23 13
-33 2 -26 -4 2 -14 1 -22 -4 -12 -7 -12 -12 -2 -22 17 -17 15 -33 -3 -18 -15
13 -39 5 -30 -11 4 -5 -7 -17 -24 -27 -17 -9 -31 -21 -31 -25 0 -5 10 -1 21 7
12 8 29 12 38 9 12 -4 13 -3 2 5 -9 7 -10 12 -2 16 6 4 8 12 5 18 -4 6 -1 9 7
6 8 -3 13 -13 11 -23 -3 -13 4 -10 22 11 25 28 25 29 26 6 0 -13 -4 -21 -8
-18 -5 3 -16 -4 -25 -15 -9 -10 -13 -19 -7 -19 5 0 13 8 19 18 5 9 13 17 18
17 4 0 8 9 9 20 1 33 15 66 25 60 5 -4 5 -14 -2 -26 -6 -12 -8 -23 -5 -27 3
-3 6 0 6 7 0 7 4 10 8 7 5 -3 9 0 10 7 3 37 11 52 28 55 14 2 20 -3 21 -17 1
-13 -3 -18 -13 -14 -19 7 -29 -23 -14 -42 6 -8 8 -20 4 -27 -5 -10 -4 -11 7
-1 10 10 10 16 1 25 -15 15 -16 38 -1 38 5 0 8 -4 5 -9 -3 -5 1 -14 9 -21 10
-9 15 -9 15 -1 0 6 -5 11 -11 11 -5 0 -7 5 -4 10 4 6 10 8 15 5 5 -3 18 4 29
16 15 16 19 18 17 5 -1 -9 -11 -23 -22 -32 -18 -15 -18 -15 2 -5 12 6 24 7 28
4 3 -3 15 2 26 12 19 18 20 17 20 -4 0 -12 -4 -19 -10 -16 -5 3 -10 1 -10 -5
0 -6 11 -8 24 -6 18 3 26 -1 29 -15 4 -14 4 -14 3 3 -1 13 -7 22 -14 21 -6 -2
-12 4 -12 12 0 20 22 14 37 -10 7 -11 12 -14 13 -7 0 7 4 11 10 7 5 -3 7 -12
3 -20 -3 -8 0 -15 7 -15 6 0 9 4 6 9 -8 12 19 33 29 23 5 -4 5 -1 1 6 -4 7
-12 9 -18 6 -6 -4 -8 -3 -5 3 8 13 -26 13 -36 -1 -6 -7 -7 -5 -4 6 4 12 1 16
-14 13 -10 -2 -19 1 -19 6 0 6 -4 8 -8 5 -4 -2 -14 -1 -21 3 -8 6 -1 16 26 36
23 18 31 21 21 9 -20 -23 -23 -44 -7 -44 5 0 8 4 5 9 -3 5 1 14 9 21 10 9 15
9 15 1 0 -6 -5 -11 -11 -11 -5 0 -8 -4 -4 -10 3 -5 12 -7 20 -4 8 4 12 11 9
16 -4 7 0 7 12 0 11 -6 22 -9 26 -9 3 1 10 -2 15 -6 4 -5 2 -7 -6 -5 -7 2 -16
-3 -18 -10 -3 -7 1 -11 8 -10 8 2 13 -7 12 -24 -1 -44 -2 -50 -11 -44 -5 3 -9
-1 -9 -9 0 -9 5 -11 11 -7 6 5 16 8 21 7 11 -1 73 -38 92 -54 7 -6 21 -11 33
-11 11 0 20 -5 20 -11 0 -12 40 -48 54 -49 5 0 17 -10 27 -22 11 -11 19 -17
19 -13 0 4 10 0 22 -11 12 -10 18 -14 15 -7 -4 6 -3 14 3 18 5 3 10 -1 10 -9
0 -17 35 -58 43 -50 2 2 10 -2 17 -11 7 -8 18 -15 25 -15 8 0 15 -6 17 -12 3
-9 35 -3 114 21 60 19 116 35 124 36 8 1 28 7 44 14 16 6 36 9 43 7 8 -3 11
-1 8 4 -3 6 3 10 14 10 11 0 43 9 72 20 28 11 56 19 62 18 7 -1 22 3 35 10 12
7 27 10 32 7 6 -3 10 -1 10 5 0 6 6 10 13 8 6 -1 22 3 35 10 12 7 22 10 22 8
0 -3 19 2 43 10 23 9 51 18 62 20 30 8 38 10 58 19 9 4 24 4 33 1 8 -3 13 -2
10 3 -3 5 22 16 56 26 34 9 69 20 77 23 10 4 12 1 7 -9 -6 -11 -4 -10 6 1 15
17 32 23 66 24 12 1 22 4 22 8 0 11 140 50 156 44 8 -3 13 -2 10 3 -5 8 77 34
98 31 5 -1 12 4 16 10 10 16 33 3 24 -13 -4 -7 -3 -8 2 -4 5 5 9 13 9 19 0 10
59 33 106 42 13 3 26 5 29 6 3 2 8 2 13 1 4 0 7 5 7 12 0 8 4 7 10 -3 6 -9 10
-10 10 -3 0 6 13 14 30 18 33 7 46 4 42 -8 -1 -5 2 -6 7 -2 6 3 8 11 5 19 -3
7 2 13 11 13 8 0 15 -4 15 -9 0 -4 5 -8 11 -8 5 0 8 4 4 9 -7 13 24 29 48 26
9 -2 17 0 17 5 0 7 40 18 75 21 6 0 16 5 23 11 8 7 17 7 27 -2 13 -11 14 -10
9 3 -4 11 0 15 13 12 10 -1 17 -8 15 -15 -1 -6 2 -9 7 -5 6 3 8 11 5 19 -3 8
9 17 34 24 49 15 55 15 47 0 -4 -7 0 -5 8 4 11 14 16 15 26 5 10 -9 12 -9 9 2
-2 7 3 16 11 19 9 3 11 0 7 -9 -4 -8 0 -5 8 5 9 11 16 16 16 12 0 -5 7 -3 15
4 16 13 39 4 29 -12 -4 -7 -2 -8 5 -4 6 4 9 11 6 16 -10 16 30 31 45 17 9 -8
11 -8 7 -1 -10 17 23 27 39 13 12 -10 13 -8 8 6 -5 11 -3 16 2 12 6 -3 16 -2
24 3 9 6 18 3 25 -7 10 -13 14 -13 20 -3 5 9 4 11 -3 6 -7 -4 -12 -3 -12 3 0
15 23 26 28 13 2 -7 8 -12 13 -12 6 0 7 5 4 10 -10 16 37 30 54 16 9 -6 12 -7
9 -1 -4 6 2 17 14 24 11 7 17 8 14 3 -3 -6 1 -12 9 -15 9 -4 12 -1 8 9 -3 7
-1 14 5 14 6 0 13 -6 15 -12 3 -7 6 -4 6 6 1 11 4 16 8 13 3 -4 12 -2 20 4 10
9 17 7 30 -8 10 -10 15 -14 11 -9 -13 16 -9 36 7 36 8 0 15 -5 15 -11 0 -5 -5
-7 -12 -3 -7 4 -8 3 -4 -5 10 -15 26 -5 26 17 0 13 2 13 15 -4 12 -16 14 -16
9 -2 -4 11 0 20 10 24 14 5 16 34 16 238 0 171 -3 235 -12 244 -10 10 -10 15
2 23 12 9 12 10 -3 5 -11 -3 -20 0 -23 9 -4 8 -10 12 -15 9 -5 -3 -12 2 -15
10 -3 9 -10 14 -14 11 -4 -2 -19 6 -33 19 -14 13 -28 21 -31 18 -3 -3 -6 -1
-6 5 0 6 10 13 23 17 30 8 39 7 33 -2 -3 -5 1 -9 8 -9 8 0 12 7 9 14 -3 8 -2
13 3 11 15 -4 84 25 84 36 0 5 3 6 7 3 8 -9 50 47 74 98 18 38 19 85 19 1080
0 1113 0 1104 -49 1177 -25 36 -124 112 -181 140 -54 27 -130 22 -275 -17 -71
-19 -130 -33 -131 -32 -2 1 -4 54 -5 117 -2 154 -18 196 -101 272 -81 75 -117
92 -203 95 -56 2 -99 -5 -215 -37z m-1997 -3845 c-3 -9 -8 -14 -10 -11 -3 3
-2 9 2 15 9 16 15 13 8 -4z m-123 -45 c-18 -12 -30 -13 -30 -2 0 4 10 9 22 9
18 2 20 0 8 -7z m107 -12 c-3 -8 -6 -5 -6 6 -1 11 2 17 5 13 3 -3 4 -12 1 -19z
m-62 2 c-3 -5 -12 -10 -18 -10 -7 0 -6 4 3 10 19 12 23 12 15 0z m45 -15 c0
-12 -19 -12 -23 0 -4 9 -1 12 9 8 7 -3 14 -7 14 -8z m27 -27 c-3 -8 -6 -5 -6
6 -1 11 2 17 5 13 3 -3 4 -12 1 -19z m-307 -31 c0 6 8 11 18 10 10 0 19 -7 19
-14 0 -9 -4 -10 -13 -2 -10 8 -17 3 -29 -20 -8 -17 -20 -31 -25 -31 -14 0 -21
18 -10 25 5 3 10 0 10 -7 0 -9 3 -9 10 2 5 8 7 24 4 35 -4 16 -3 17 5 5 7 -9
11 -10 11 -3z m118 -14 c-6 -7 -12 -13 -13 -13 -2 0 -5 6 -8 13 -3 7 3 13 14
13 13 0 15 -3 7 -13z m-274 -8 c4 -12 10 -13 25 -5 27 14 56 3 40 -16 -8 -10
-16 -11 -30 -4 -15 9 -21 5 -35 -22 l-18 -33 -6 25 c-4 14 -2 34 3 45 10 19 9
19 -16 3 -22 -15 -26 -15 -31 -2 -3 8 -2 13 2 11 4 -3 16 -1 27 4 29 11 32 11
39 -6z m-48 -25 c7 7 10 0 9 -18 0 -17 -5 -27 -15 -27 -8 0 -14 6 -12 13 2 11
-10 16 -30 13 -5 0 -8 4 -8 10 0 8 -5 8 -15 -1 -8 -7 -13 -16 -10 -20 3 -4 -2
-11 -10 -14 -12 -4 -13 -2 -6 13 7 13 6 18 -4 18 -8 0 -12 -4 -10 -8 8 -12 -6
-39 -17 -33 -5 4 -5 10 1 18 7 8 4 12 -12 13 -15 2 -18 0 -9 -6 11 -7 10 -10
-3 -14 -10 -5 -14 -3 -9 5 4 7 3 8 -5 4 -6 -4 -9 -12 -6 -17 4 -5 2 -9 -4 -9
-15 0 -21 15 -10 30 5 8 9 11 9 6 0 -5 7 -3 15 4 8 6 19 9 24 6 5 -4 12 -2 16
3 3 5 14 8 25 6 11 -2 20 1 20 6 0 6 9 7 21 4 16 -6 20 -4 14 6 -5 8 0 6 11
-3 13 -12 24 -14 30 -8z m-56 -26 c0 -3 -5 -15 -11 -27 -10 -21 -10 -21 5 -3
9 11 16 23 16 28 0 4 14 -6 30 -24 22 -23 27 -34 18 -39 -7 -5 -19 -2 -28 5
-16 14 -67 15 -87 3 -7 -4 -16 0 -22 10 -6 10 -11 12 -11 6 0 -7 -8 -13 -17
-13 -16 1 -16 2 1 15 12 9 23 11 31 5 6 -5 17 -5 25 0 8 5 18 6 22 4 7 -5 12
10 9 29 0 4 4 7 9 7 6 0 10 -3 10 -6z"/>
<path d="M1164 682 c3 -5 1 -12 -6 -14 -8 -3 -9 -6 -1 -11 6 -4 13 0 17 8 3 8
0 17 -6 21 -6 4 -8 3 -4 -4z"/>
<path d="M1215 680 c3 -5 8 -10 11 -10 2 0 4 5 4 10 0 6 -5 10 -11 10 -5 0 -7
-4 -4 -10z"/>
<path d="M1080 616 c0 -3 9 -10 20 -16 11 -6 20 -8 20 -6 0 3 -9 10 -20 16
-11 6 -20 8 -20 6z"/>
<path d="M4571 1724 c0 -11 3 -14 6 -6 3 7 2 16 -1 19 -3 4 -6 -2 -5 -13z"/>
<path d="M4675 1731 c-3 -6 -14 -8 -25 -6 -12 2 -18 0 -15 -6 4 -5 1 -9 -6 -9
-7 0 -9 -3 -6 -6 4 -4 13 -2 20 4 8 7 16 10 19 7 3 -3 11 1 18 10 7 8 10 15 7
15 -3 0 -8 -4 -12 -9z"/>
<path d="M4756 1715 c-9 -26 -7 -32 5 -12 6 10 9 21 6 23 -2 3 -7 -2 -11 -11z"/>
<path d="M4676 1093 c-6 -14 -5 -15 5 -6 7 7 10 15 7 18 -3 3 -9 -2 -12 -12z"/>
<path d="M4562 1080 c-9 -15 -9 -21 1 -26 6 -4 9 -4 5 1 -4 4 -3 14 4 22 6 7
9 15 7 18 -3 2 -10 -4 -17 -15z"/>
<path d="M4430 1019 c0 -5 5 -7 10 -4 6 3 10 8 10 11 0 2 -4 4 -10 4 -5 0 -10
-5 -10 -11z"/>
<path d="M4273 995 c0 -8 4 -12 9 -9 5 3 6 10 3 15 -9 13 -12 11 -12 -6z"/>
<path d="M4335 981 c-3 -5 -2 -12 3 -15 5 -3 9 1 9 9 0 17 -3 19 -12 6z"/>
<path d="M4024 924 c-18 -14 -18 -15 4 -4 12 6 22 13 22 15 0 8 -5 6 -26 -11z"/>
<path d="M4086 922 c-3 -5 1 -9 9 -9 8 0 12 4 9 9 -3 4 -7 8 -9 8 -2 0 -6 -4
-9 -8z"/>
<path d="M3893 855 c0 -8 4 -12 9 -9 5 3 6 10 3 15 -9 13 -12 11 -12 -6z"/>
<path d="M1435 760 c3 -5 8 -10 11 -10 2 0 4 5 4 10 0 6 -5 10 -11 10 -5 0 -7
-4 -4 -10z"/>
<path d="M1346 748 c3 -5 10 -6 15 -3 13 9 11 12 -6 12 -8 0 -12 -4 -9 -9z"/>
<path d="M1602 711 c-11 -7 -11 -9 1 -14 9 -3 18 1 21 9 6 16 -2 18 -22 5z"/>
<path d="M615 660 c3 -5 8 -10 11 -10 2 0 4 5 4 10 0 6 -5 10 -11 10 -5 0 -7
-4 -4 -10z"/>
<path d="M1470 651 c0 -8 -7 -11 -17 -6 -15 5 -16 4 -5 -6 9 -10 15 -10 24 -1
6 6 9 15 5 19 -4 3 -7 1 -7 -6z"/>
<path d="M1360 640 c0 -5 5 -10 10 -10 6 0 10 5 10 10 0 6 -4 10 -10 10 -5 0
-10 -4 -10 -10z"/>
<path d="M1410 617 c0 -2 6 -10 14 -16 11 -9 16 -9 22 1 4 7 4 10 -1 6 -4 -4
-14 -3 -22 3 -7 6 -13 9 -13 6z"/>
<path d="M713 595 c0 -8 4 -12 9 -9 5 3 6 10 3 15 -9 13 -12 11 -12 -6z"/>
<path d="M858 600 c-2 -6 -12 -12 -23 -14 -12 -2 -20 -11 -21 -24 -1 -14 3
-19 14 -14 11 4 12 7 4 10 -7 2 -12 8 -12 13 0 6 4 8 9 5 10 -7 48 20 40 29
-4 3 -9 1 -11 -5z"/>
<path d="M1319 593 c-13 -16 -12 -17 4 -4 16 13 21 21 13 21 -2 0 -10 -8 -17
-17z"/>
<path d="M1656 587 c3 -10 9 -15 12 -12 3 3 0 11 -7 18 -10 9 -11 8 -5 -6z"/>
<path d="M880 580 c-8 -5 -12 -11 -9 -14 2 -3 11 -1 19 4 8 5 12 11 9 14 -2 3
-11 1 -19 -4z"/>
<path d="M1215 580 c-3 -6 1 -7 9 -4 18 7 21 14 7 14 -6 0 -13 -4 -16 -10z"/>
<path d="M1450 580 c0 -5 5 -10 11 -10 5 0 7 5 4 10 -3 6 -8 10 -11 10 -2 0
-4 -4 -4 -10z"/>
<path d="M1716 567 c3 -8 11 -14 19 -14 20 0 19 4 -5 17 -15 8 -18 8 -14 -3z"/>
<path d="M1199 558 c-6 -20 -6 -39 0 -42 4 -3 7 6 7 20 0 20 -4 32 -7 22z"/>
<path d="M1335 551 c-3 -5 -2 -12 3 -15 5 -3 9 1 9 9 0 17 -3 19 -12 6z"/>
<path d="M993 526 c0 -14 6 -27 14 -30 9 -4 11 -2 6 7 -4 6 -8 18 -9 25 -4 25
-11 23 -11 -2z"/>
<path d="M1068 528 c-10 -10 -14 -18 -9 -18 10 0 36 29 30 34 -2 1 -12 -6 -21
-16z"/>
<path d="M1156 541 c-3 -5 2 -15 12 -22 15 -13 16 -12 4 3 -10 13 -10 17 0 21
9 4 9 6 1 6 -6 1 -14 -3 -17 -8z"/>
<path d="M877 533 c-4 -3 -7 -11 -7 -16 0 -6 3 -7 7 -4 3 4 13 1 22 -6 14 -11
15 -10 1 8 -8 11 -15 21 -16 23 0 1 -4 -1 -7 -5z"/>
<path d="M915 530 c3 -5 8 -10 11 -10 2 0 4 5 4 10 0 6 -5 10 -11 10 -5 0 -7
-4 -4 -10z"/>
<path d="M947 526 c-4 -10 1 -12 14 -9 23 6 24 9 5 16 -8 3 -17 0 -19 -7z"/>
<path d="M836 518 c3 -5 10 -6 15 -3 13 9 11 12 -6 12 -8 0 -12 -4 -9 -9z"/>
<path d="M1109 517 c6 -8 7 -18 3 -22 -4 -5 -1 -5 6 -1 10 6 10 11 1 22 -6 8
-14 14 -16 14 -3 0 0 -6 6 -13z"/>
<path d="M1227 519 c7 -7 15 -10 18 -7 3 3 -2 9 -12 12 -14 6 -15 5 -6 -5z"/>
<path d="M1030 496 c0 -2 8 -10 18 -17 15 -13 16 -12 3 4 -13 16 -21 21 -21
13z"/>
<path d="M870 476 c7 -7 13 -7 20 0 6 6 3 10 -10 10 -13 0 -16 -4 -10 -10z"/>
<path d="M1095 461 c-3 -5 -2 -12 3 -15 5 -3 9 1 9 9 0 17 -3 19 -12 6z"/>
</g>
</svg>
